<?xml version="1.0" encoding="UTF-8" standalone="no"?>
<!-- Created with Inkscape (http://www.inkscape.org/) -->

<svg
   width="1600mm"
   height="900mm"
   viewBox="0 0 1600 900"
   version="1.1"
   id="svg5"
   xml:space="preserve"
   inkscape:version="1.2 (dc2aedaf03, 2022-05-15)"
   sodipodi:docname="tableau_bckgrd.svg"
   xmlns:inkscape="http://www.inkscape.org/namespaces/inkscape"
   xmlns:sodipodi="http://sodipodi.sourceforge.net/DTD/sodipodi-0.dtd"
   xmlns:xlink="http://www.w3.org/1999/xlink"
   xmlns="http://www.w3.org/2000/svg"
   xmlns:svg="http://www.w3.org/2000/svg"><sodipodi:namedview
     id="namedview7"
     pagecolor="#ffffff"
     bordercolor="#000000"
     borderopacity="0.25"
     inkscape:showpageshadow="2"
     inkscape:pageopacity="0.0"
     inkscape:pagecheckerboard="0"
     inkscape:deskcolor="#d1d1d1"
     inkscape:document-units="mm"
     showgrid="false"
     inkscape:zoom="0.13181247"
     inkscape:cx="2412.5183"
     inkscape:cy="2435.2779"
     inkscape:window-width="1920"
     inkscape:window-height="1017"
     inkscape:window-x="-8"
     inkscape:window-y="-6"
     inkscape:window-maximized="1"
     inkscape:current-layer="layer1" /><defs
     id="defs2"><linearGradient
       inkscape:collect="always"
       id="linearGradient28645"><stop
         style="stop-color:#000000;stop-opacity:1;"
         offset="0"
         id="stop28641" /><stop
         style="stop-color:#000000;stop-opacity:0;"
         offset="1"
         id="stop28643" /></linearGradient><linearGradient
       inkscape:collect="always"
       id="linearGradient26631"><stop
         style="stop-color:#ad9c5a;stop-opacity:1;"
         offset="0"
         id="stop26627" /><stop
         style="stop-color:#000000;stop-opacity:0;"
         offset="1"
         id="stop26629" /></linearGradient><linearGradient
       inkscape:collect="always"
       id="linearGradient26621"><stop
         style="stop-color:#ad9c5a;stop-opacity:1;"
         offset="0"
         id="stop26617" /><stop
         style="stop-color:#000000;stop-opacity:0;"
         offset="1"
         id="stop26619" /></linearGradient><linearGradient
       inkscape:collect="always"
       id="linearGradient21918"><stop
         style="stop-color:#e7e3d4;stop-opacity:1;"
         offset="0.99391478"
         id="stop21914" /><stop
         style="stop-color:#e7e3d4;stop-opacity:0;"
         offset="1"
         id="stop21916" /></linearGradient><linearGradient
       inkscape:collect="always"
       id="linearGradient17764"><stop
         style="stop-color:#474640;stop-opacity:1;"
         offset="0"
         id="stop17760" /><stop
         style="stop-color:#474640;stop-opacity:0;"
         offset="0.41176471"
         id="stop17762" /></linearGradient><linearGradient
       id="linearGradient16600"
       inkscape:swatch="solid"><stop
         style="stop-color:#070704;stop-opacity:1;"
         offset="0"
         id="stop16598" /></linearGradient><linearGradient
       id="linearGradient985"
       inkscape:swatch="solid"><stop
         style="stop-color:#3f7652;stop-opacity:1;"
         offset="0"
         id="stop983" /></linearGradient><linearGradient
       inkscape:collect="always"
       xlink:href="#linearGradient17764"
       id="linearGradient17766"
       x1="0"
       y1="1000"
       x2="1600"
       y2="1000"
       gradientUnits="userSpaceOnUse"
       gradientTransform="scale(1,0.45)" /><linearGradient
       inkscape:collect="always"
       xlink:href="#linearGradient21918"
       id="linearGradient21920"
       x1="-4.9999994e-07"
       y1="1000"
       x2="1600"
       y2="1000"
       gradientUnits="userSpaceOnUse"
       gradientTransform="scale(1,0.45)" /><linearGradient
       inkscape:collect="always"
       xlink:href="#linearGradient26631"
       id="linearGradient26625"
       x1="-1.5853283e-07"
       y1="157.9285"
       x2="229.95811"
       y2="157.9285"
       gradientUnits="userSpaceOnUse"
       gradientTransform="matrix(0.52427744,0,0,0.52746864,-12.043623,40.733257)" /><linearGradient
       inkscape:collect="always"
       xlink:href="#linearGradient26621"
       id="linearGradient26739"
       gradientUnits="userSpaceOnUse"
       gradientTransform="matrix(0.03931551,-0.6107658,0.69175837,0.05661664,1109.8177,920.11012)"
       x1="3.0947695"
       y1="547.70892"
       x2="332.37128"
       y2="547.70892" /><linearGradient
       inkscape:collect="always"
       xlink:href="#linearGradient26621"
       id="linearGradient28424"
       gradientUnits="userSpaceOnUse"
       gradientTransform="rotate(141.07069,897.59133,553.83249)"
       x1="3.0947695"
       y1="547.70892"
       x2="332.37128"
       y2="547.70892" /><linearGradient
       inkscape:collect="always"
       xlink:href="#linearGradient28645"
       id="linearGradient28647"
       x1="97.346436"
       y1="30.751417"
       x2="578.04041"
       y2="356.03696"
       gradientUnits="userSpaceOnUse"
       gradientTransform="translate(46.319494,20.182463)" /></defs><g
     inkscape:label="Layer 1"
     inkscape:groupmode="layer"
     id="layer1"><rect
       style="fill:url(#linearGradient21920);fill-opacity:1;stroke:url(#linearGradient17766);stroke-width:0"
       id="rect234"
       width="1600"
       height="900"
       x="5e-07"
       y="5e-07"
       ry="16.65" /><g
       id="g30168"
       transform="matrix(1,0,0,1.2967129,6.1073303,-260.62413)"><rect
         style="fill:#949287;fill-opacity:1;stroke:none;stroke-width:2.54432;stroke-dasharray:none;stroke-opacity:1"
         id="rect21974-0-0-5"
         width="801.91815"
         height="308.12772"
         x="785.67432"
         y="566.36981"
         ry="11.589366" /><rect
         style="fill:#ded7bc;fill-opacity:1;stroke:none;stroke-width:2.54432;stroke-dasharray:none;stroke-opacity:1"
         id="rect21974-0-0"
         width="801.91815"
         height="308.12772"
         x="783.0285"
         y="563.724"
         ry="11.589366" /></g><g
       id="g30164"
       transform="matrix(1,0,0,1.3694149,0,-323.05246)"><rect
         style="fill:#949287;fill-opacity:1;stroke:none;stroke-width:2.46802;stroke-dasharray:none;stroke-opacity:1"
         id="rect21974-0-5"
         width="754.5426"
         height="308.12772"
         x="15.875169"
         y="566.36981"
         ry="11.589366" /><rect
         style="fill:#ded7bc;fill-opacity:1;stroke:none;stroke-width:2.46802;stroke-dasharray:none;stroke-opacity:1"
         id="rect21974-0"
         width="754.5426"
         height="308.12772"
         x="13.229338"
         y="564.51294"
         ry="11.589366" /></g><g
       id="g30188"
       transform="translate(-5.5199666,-265.3198)"><rect
         style="fill:#817f75;fill-opacity:0.811765;stroke:none;stroke-width:1.08579;stroke-dasharray:none;stroke-opacity:1"
         id="rect21974-7-3-4"
         width="300"
         height="150"
         x="1289.4165"
         y="404.79822"
         ry="18.51852" /><rect
         style="fill:#ded7bc;fill-opacity:1;stroke:none;stroke-width:1.08579;stroke-dasharray:none;stroke-opacity:1"
         id="rect21974-6-5"
         width="300"
         height="150"
         x="1286.7706"
         y="402.15234"
         ry="18.51852" /></g><g
       id="g30172"
       transform="translate(-5.543175,-262.67393)"><rect
         style="fill:#817f75;fill-opacity:0.811765;stroke:none;stroke-width:1.08579;stroke-dasharray:none;stroke-opacity:1"
         id="rect21974-7-3-9"
         width="300"
         height="150"
         x="972.35413"
         y="402.15234"
         ry="18.51852" /><rect
         style="fill:#ded7bc;fill-opacity:1;stroke:none;stroke-width:1.08579;stroke-dasharray:none;stroke-opacity:1"
         id="rect21974-6-4"
         width="300"
         height="150"
         x="969.70825"
         y="399.50647"
         ry="18.51852" /></g><g
       id="g30176"
       transform="translate(465.48801,-91.939344)"><rect
         style="fill:#817f75;fill-opacity:0.811765;stroke:none;stroke-width:1.08579;stroke-dasharray:none;stroke-opacity:1"
         id="rect21974-7-3-7"
         width="300"
         height="150"
         x="652.64587"
         y="399.50647"
         ry="18.51852" /><rect
         style="fill:#ded7bc;fill-opacity:1;stroke:none;stroke-width:1.08579;stroke-dasharray:none;stroke-opacity:1"
         id="rect21974-7"
         width="300"
         height="150"
         x="650"
         y="396.8606"
         ry="18.51852" /></g><rect
       style="fill:#ad9c5a;fill-opacity:1;stroke-width:0"
       id="rect4783"
       width="817.16437"
       height="10.036354"
       x="782.83563"
       y="85.931046"
       ry="0" /><text
       xml:space="preserve"
       style="font-weight:bold;font-size:70.5556px;font-family:helvetica;-inkscape-font-specification:'helvetica Bold';text-align:center;text-anchor:middle;fill:#7c7046;fill-opacity:1;stroke-width:0;font-style:normal;font-stretch:normal;font-variant:normal"
       x="1210.3843"
       y="75.201515"
       id="text6765"><tspan
         sodipodi:role="line"
         id="tspan6763"
         style="font-style:normal;font-variant:normal;font-weight:bold;font-stretch:normal;font-family:helvetica;-inkscape-font-specification:'helvetica Bold';fill:#050503;fill-opacity:1;stroke-width:0"
         x="1210.3843"
         y="75.201515">Data Analyst Jobs</tspan></text><text
       xml:space="preserve"
       style="font-weight:bold;font-size:22.5778px;font-family:helvetica;-inkscape-font-specification:'helvetica Bold';text-align:center;text-anchor:middle;fill:#7c7046;fill-opacity:1;stroke-width:0;font-style:normal;font-stretch:normal;font-variant:normal"
       x="1432.2925"
       y="119.2841"
       id="text7545"><tspan
         sodipodi:role="line"
         id="tspan7543"
         style="font-size:22.5778px;fill:#070600;fill-opacity:1;stroke-width:0;-inkscape-font-specification:'helvetica Bold';font-family:helvetica;font-weight:bold;font-style:normal;font-stretch:normal;font-variant:normal"
         x="1432.2925"
         y="119.2841">Based on Google Job Listings</tspan></text><g
       id="g30192"
       transform="translate(-1.3229388,42.270658)"><ellipse
         style="display:inline;fill:#070704;fill-opacity:0.388489;stroke:none;stroke-width:1.16919;stroke-dasharray:none;stroke-opacity:1"
         id="path12524-8"
         cx="824.8858"
         cy="248.79514"
         rx="124.83956"
         ry="119.0313" /><ellipse
         style="fill:#ded7bc;fill-opacity:1;stroke:none;stroke-width:1.19836;stroke-dasharray:none;stroke-opacity:1"
         id="path12524"
         cx="820.12305"
         cy="243.23903"
         rx="128.01479"
         ry="121.9417" /></g><path
       style="fill:url(#linearGradient26625);fill-opacity:1;stroke-width:2.03616"
       d="m 108.20727,90.808 c 2.5074,23.15074 -9.912753,28.3998 -45.887434,19.39328 -42.560809,-10.65537 -45.948095,10.69977 -6.159479,38.83209 35.91243,25.39164 42.05885,42.13773 20.132867,54.85258 C 47.728555,220.45053 11.789446,175.50984 0.85385733,109.55148 -2.6030549,88.70137 -4.771857,81.129823 -10.369689,70.369674 -18.823203,54.120207 6.8247333,32.081949 20.029356,44.249016 23.787845,47.712209 38.212875,53.646879 59.683848,60.563422 98.061207,72.926145 106.86485,78.413467 108.20727,90.808 Z"
       id="path26588" /><path
       style="fill:url(#linearGradient28424);fill-opacity:1;stroke-width:3.87198"
       d="m 1568.683,159.70871 c -35.8918,25.70999 -56.1901,9.95463 -74.9937,-58.20957 -22.2465,-80.643449 -60.6911,-66.400204 -69.9078,25.89964 -8.3188,83.30803 -30.2248,109.10552 -71.7542,84.50069 -54.1036,-32.05476 -13.5195,-133.598754 85.1894,-213.1497133 31.2026,-25.1471877 41.6786,-35.7970227 54.211,-55.1125097 18.9257,-29.169049 79.3397,-7.055116 71.6052,26.210668 -2.2016,9.468607 1.5009,38.9627977 10.1781,81.07981 15.5095,75.279995 14.688,95.016345 -4.528,108.780985 z"
       id="path26588-8-0" /><path
       style="fill:url(#linearGradient28647);fill-opacity:1;stroke-width:0.946557"
       d="m 145.83927,370.65645 -2.17334,-2.07462 v -14.15478 -14.15477 l 1.5651,-5.5076 c 6.44814,-22.69074 26.37115,-40.3044 53.94741,-47.69418 l 8.95878,-2.40074 18.24913,-0.56382 18.24911,-0.5638 7.93254,-10.68536 7.93254,-10.68536 -7.62063,-7.24204 c -16.0586,-15.2609 -30.24915,-41.55641 -30.24915,-56.05259 v -2.53617 l -3.91738,-1.40561 c -5.21464,-1.8711 -10.69646,-6.29897 -13.37715,-10.80518 l -2.18344,-3.67034 -0.33678,-15.32362 c -0.45504,-20.70598 1.51396,-25.74783 12.41469,-31.7894 l 3.40184,-1.88543 0.0246,-14.94111 c 0.0274,-16.725586 0.66465,-20.230147 5.22528,-28.734031 l 3.17878,-5.927224 7.03074,-6.304958 7.03075,-6.304956 6.91156,-2.981274 c 3.97636,-1.715181 10.34376,-3.507474 14.99332,-4.220327 4.44498,-0.681473 9.88095,-1.820614 12.07997,-2.531422 54.24071,-17.532614 93.86862,-7.714862 106.51878,26.38985 l 2.15622,5.813169 0.5024,18.647943 0.50238,18.64796 3.87122,1.38906 c 9.95721,3.57281 11.39337,7.67912 11.39337,32.57653 v 18.37559 l -1.81413,4.21599 c -1.59974,3.71785 -7.44705,9.67777 -9.49488,9.67777 -0.40926,0 -1.3146,3.32777 -2.01185,7.39505 -3.22598,18.81782 -12.38015,37.01278 -25.61986,50.92233 -5.68032,5.96768 -6.1021,4.27053 4.50916,18.14404 l 9.04911,11.83112 17.68898,0.52002 17.68899,0.51999 6.9969,1.57204 c 3.84828,0.8646 11.69422,3.60023 17.43541,6.07917 l 10.43855,4.50715 8.62207,7.74275 c 10.08239,9.05412 14.76369,16.01547 18.46793,27.46291 l 2.61067,8.06733 0.59482,13.44616 0.59481,13.44614 -2.7329,2.91262 -2.7329,2.91264 h -3.32073 -3.32074 l -2.58774,-2.75791 -2.58773,-2.75787 v -11.08023 c 0,-29.42523 -14.84534,-47.82973 -44.52525,-55.20021 l -7.95138,-1.97459 -15.80761,-0.09 -15.80758,-0.09 -13.96457,28.23569 c -14.3386,28.9919 -16.5348,32.26936 -21.62336,32.26936 h -2.6203 l -13.55916,-12.06843 -13.55915,-12.06846 -13.58165,12.06846 -13.58164,12.06843 h -2.44628 c -4.00779,0 -6.97409,-2.60451 -10.10415,-8.87178 -6.89816,-13.81213 -14.84609,-29.80143 -18.75949,-37.73951 -2.30894,-4.68352 -4.88263,-9.82646 -5.71931,-11.42873 l -1.52124,-2.9132 h -10.15778 c -27.2659,0 -43.86685,5.02807 -57.71052,17.47923 l -5.9797,5.37823 -3.96818,7.17096 c -4.69588,8.48602 -5.90506,14.29201 -5.91286,28.39101 l -0.005,10.46359 -2.58774,2.75787 -2.58773,2.75791 h -3.23535 c -2.08948,0 -4.00509,-0.73478 -5.40871,-2.07461 z m 149.71304,-44.78222 c -2.05065,-1.41209 -27.94159,-15.76593 -27.94159,-15.49071 0,0.19606 2.52652,5.32955 5.61446,11.40776 3.08794,6.0782 6.27277,12.42705 7.07744,14.10859 l 1.463,3.05733 7.12025,-6.38524 c 3.91615,-3.51187 6.91606,-6.52586 6.66644,-6.69773 z m 42.41336,9.88151 c 5.23758,-10.31346 12.60812,-25.18418 12.60812,-25.43806 0,-0.24626 -26.43485,14.45332 -27.93258,15.53244 -0.37643,0.2712 12.95074,12.81883 13.61522,12.81883 0.12636,0 0.89554,-1.31095 1.70924,-2.91321 z m -2.19561,-34.62881 22.67959,-12.7153 -7.61142,-10.05389 -7.61144,-10.05391 -8.15146,3.6205 c -17.37474,7.71706 -37.4909,7.99279 -55.13405,0.75571 -3.03713,-1.2458 -5.66129,-2.13504 -5.83143,-1.97611 -1.07458,1.00386 -13.47539,18.08277 -13.26086,18.2634 0.14555,0.12256 11.05983,6.28801 24.25395,13.70109 l 23.98932,13.47831 1.9991,-1.15226 c 1.09952,-0.63375 12.20494,-6.87415 24.6787,-13.86754 z m -17.3134,-39.05524 c 26.97399,-6.43825 49.67893,-35.59705 52.68904,-67.66581 l 0.71022,-7.56651 2.30771,-2.06948 c 1.26924,-1.13822 3.43683,-2.06949 4.81687,-2.06949 4.19602,0 4.64182,-2.17938 4.34993,-21.26542 l -0.27111,-17.7267 -5.3676,-0.48322 -5.36759,-0.4832 -1.87919,-2.08112 -1.87917,-2.08113 -0.0201,-17.15581 c -0.0625,-53.412179 -24.22402,-66.981281 -86.42857,-48.538417 -5.50459,1.632049 -12.3748,3.190959 -15.26708,3.464253 -11.98311,1.132257 -23.71217,8.911996 -29.01163,19.24306 l -2.61087,5.089764 -0.55094,19.60204 -0.55093,19.60206 -1.99911,1.26476 c -1.09953,0.69559 -4.24812,2.56391 -6.9969,4.15178 l -4.99777,2.88702 -0.27364,14.9324 -0.27364,14.9324 2.62404,1.851 c 1.44322,1.01805 4.26516,2.09232 6.27097,2.38725 8.21289,1.20764 9.65621,3.07219 10.49843,13.56237 3.16469,39.41687 45.16278,74.40679 79.47862,66.21615 z m 233.66224,108.80156 -2.63365,-1.8578 v -8.38561 c 0,-22.36168 -4.70635,-34.49153 -17.91109,-46.1629 l -6.59185,-5.82642 -7.48977,-3.28632 c -4.11939,-1.80747 -10.18854,-3.95433 -13.48708,-4.77078 l -5.9973,-1.48447 -20.31321,-0.50614 -20.31305,-0.50615 -2.44999,-2.34221 c -3.67135,-3.5099 -24.417,-30.58243 -26.05012,-33.99474 l -1.42078,-2.96866 2.13177,-3.82782 c 1.17248,-2.10529 4.7516,-6.28908 7.95363,-9.29728 14.72255,-13.83137 23.01747,-30.98042 24.57143,-50.79933 0.74653,-9.52101 1.97465,-11.70001 7.41873,-13.16272 l 4.02206,-1.08064 -0.26967,-18.45249 -0.26967,-18.45249 -4.8873,-0.50328 -4.88725,-0.50325 -2.35952,-2.45993 -2.3595,-2.45994 -0.0351,-19.44607 C 458.41782,77.993724 449.1097,66.172182 417.41791,66.172182 h -8.02415 l -2.92177,-2.620158 c -3.87745,-3.477191 -3.81935,-6.66514 0.18261,-10.017592 l 3.10436,-2.600552 h 7.94331 c 28.50928,0 47.79081,12.773317 54.8,36.303024 l 2.13616,7.170967 0.60129,17.479229 0.60114,17.47924 4.64124,1.99905 4.64124,1.99905 2.4441,3.82735 2.44424,3.82736 0.32102,19.04734 0.32102,19.04735 -1.56751,4.83541 -1.56749,4.83543 -3.53613,2.78428 c -1.94497,1.53135 -3.97031,2.78427 -4.50098,2.78427 -0.53066,0 -0.96484,1.31095 -0.96498,2.9132 -9.5e-4,17.195 -12.61024,43.19466 -27.81114,57.34525 l -4.54963,4.23526 9.43349,12.55161 9.43348,12.55161 14.49361,0.027 c 43.76706,0.0811 72.78404,17.01082 83.01071,48.43198 l 2.18338,6.70814 0.49777,13.92756 0.4979,13.92754 -2.70179,2.87942 -2.70179,2.8794 h -2.77503 c -1.5262,0 -3.96011,-0.83601 -5.40867,-1.8578 z m 90.12083,-0.21585 -2.49503,-2.07363 -0.54787,-13.83695 -0.54787,-13.83694 -2.73387,-6.72278 c -6.88699,-16.93517 -21.39272,-28.55669 -41.94972,-33.60856 l -5.9973,-1.47385 -19.84765,-0.51126 -19.84752,-0.51127 -2.40431,-1.89179 c -1.32233,-1.04047 -8.01218,-9.15237 -14.8664,-18.02645 l -12.46222,-16.13468 -0.0206,-2.58331 c -0.0261,-3.39407 3.04291,-7.84984 9.95384,-14.44774 14.73534,-14.06793 24.01054,-34.32201 24.01054,-52.43144 0,-6.6931 1.8201,-9.47775 7.12704,-10.90356 l 3.90767,-1.04993 -0.26967,-18.45249 -0.26967,-18.45249 -4.68612,-0.48325 c -2.57748,-0.2658 -5.5495,-1.18389 -6.60464,-2.04023 l -1.91853,-1.55698 -0.62592,-20.36905 C 547.84919,77.124668 539.47676,66.221223 508.38818,66.182825 l -8.61127,-0.01 -2.63365,-1.857797 -2.63379,-1.857798 v -3.440756 -3.440739 l 3.0754,-2.320605 3.07539,-2.320606 7.66983,0.0066 c 20.77422,0.01696 37.50395,7.430261 47.30842,20.963144 3.74882,5.174345 4.41796,6.663772 7.49363,16.678158 l 1.51423,4.930035 0.52971,18.102739 0.5297,18.10273 2.94379,0.57981 c 9.85555,1.94119 12.08091,8.42604 11.64922,33.94619 l -0.33505,19.80199 -1.74756,2.87259 c -0.96126,1.57993 -3.48631,4.12555 -5.61131,5.65696 l -3.86362,2.78438 -0.67796,6.70992 c -1.80963,17.90744 -11.80987,37.65736 -25.91447,51.17912 l -5.83679,5.59565 9.44767,12.34928 9.44768,12.34929 18.3794,0.56381 18.3794,0.56379 8.79256,2.35759 c 26.53077,7.11363 45.31281,23.57174 52.28487,45.8152 l 1.68573,5.37823 0.45414,14.97399 0.45413,14.97399 -2.74474,2.28116 c -3.4216,2.84376 -7.38833,2.92102 -10.65328,0.20751 z"
       id="path28527" /><path
       style="fill:url(#linearGradient26739);fill-opacity:1;stroke-width:2.52342"
       d="m 1418.3489,866.84412 c 3.4988,-26.7757 21.0319,-28.9573 64.778,-8.0602 51.7551,24.7229 62.3289,1.7308 19.2275,-41.8087 -38.9024,-39.2977 -41.9556,-59.96331 -10.0009,-67.69103 41.6301,-10.06762 74.8836,51.21419 69.8024,128.63583 -1.6061,24.4738 -1.0122,33.6348 3.0742,47.407 6.171,20.7982 -33.2912,37.8924 -46.7723,20.2607 -3.8371,-5.0186 -20.7029,-16.0095 -46.3641,-30.2141 -45.867,-25.3893 -55.618,-34.1942 -53.7448,-48.5295 z"
       id="path26588-8-7" /></g><g
     inkscape:label="Layer 1"
     id="layer1-3"
     transform="matrix(2.0279618,0,0,1.9572647,411.62016,216.83067)"
     style="fill:#7c7046;fill-opacity:1"><path
       style="fill:#fcfcfa;fill-opacity:1;stroke-width:0.999999"
       d="m 60.507607,31.731461 c 7.4018,2.281734 11.1983,9.082826 9.0251,16.168232 -0.4896,1.596411 -0.6811,3.096691 -0.426,3.333957 0.2556,0.237265 4.1482,3.128384 8.6506,6.424688 l 8.1861,5.993282 2.4989,-1.636236 c 6.9843,-4.573065 16.248603,0.293623 16.457403,8.645486 0.193,7.695068 -7.614603,12.968548 -14.615803,9.872858 -5.3193,-2.351804 -7.7694,-7.895505 -5.9077,-13.366418 l 0.6674,-1.960972 -8.8052,-6.364896 -8.8052,-6.364931 -2.1363,1.596261 c -4.5391,3.391754 -10.7945,3.391265 -15.6513,-8.42e-4 l -1.5338,-1.071407 -2.0912,1.634039 c -1.6957,1.324902 -10.875,8.930295 -11.6519,9.653692 -0.114,0.10556 0.2228,1.205596 0.748,2.444501 1.2334,2.912509 1.239,5.305536 0.02,8.124034 -3.2224,7.445126 -13.82,8.638768 -18.3538,2.067247 -3.3029,-4.787753 -2.1263,-11.691375 2.5353,-14.875267 3.402,-2.32363 9.1328,-2.161813 12.7668,0.360503 0.7592,0.526907 2.0623,-0.323944 7.7884,-5.085518 l 6.8768,-5.71828 -1.1886,-3.393976 c -1.049,-2.994288 -1.1166,-3.749142 -0.5737,-6.410286 0.8137,-3.991163 3.0925,-7.142326 6.3454,-8.774118 2.8288,-1.419182 6.9062,-1.994753 9.1753,-1.295255 z"
       id="path7055-2"
       inkscape:label="Top" /><path
       style="fill:#7c7046;fill-opacity:1;stroke-width:1"
       d="m 87.634086,112.88339 c -7.356305,-2.36169 -11.017605,-9.14647 -8.703705,-16.129469 0.5213,-1.573334 0.7427,-3.055671 0.4922,-3.29408 -0.2508,-0.238408 -4.0859,-3.15437 -8.5227,-6.479882 l -8.0669,-6.046392 -2.5313,1.584751 c -7.0751,4.429146 -16.2425,-0.51714 -16.2854,-8.786913 -0.04,-7.619435 7.8722,-12.730392 14.8118,-9.568613 5.2724,2.402014 7.6123,7.92344 5.642,13.312712 l -0.7064,1.931709 8.6786,6.422862 8.6785,6.422884 2.168,-1.55023 c 4.606395,-3.293955 10.861695,-3.206276 15.650995,0.219395 l 1.512504,1.081886 2.1236,-1.588257 c 1.7219,-1.287778 11.0522,-8.687797 11.8434,-9.393005 0.1162,-0.102894 -0.1988,-1.196425 -0.6994,-2.430044 -1.1754,-2.900058 -1.1335,-5.268804 0.1417,-8.041612 3.3703,-7.324424 13.9915,-8.358182 18.3947,-1.790351 3.2077,4.785059 1.8939,11.602006 -2.8309,14.688503 -3.4481,2.252559 -9.1755,2.012501 -12.7594,-0.534796 -0.7487,-0.532125 -2.0687,0.291901 -7.8893,4.925185 l -6.9903,5.564212 1.1212,3.375998 c 0.9894,2.978429 1.042,3.726547 0.4463,6.353027 -0.893,3.9392 -3.2344,7.02652 -6.519604,8.59636 -2.857,1.3653 -6.9458,1.87817 -9.2009,1.15416 z"
       id="path7055"
       inkscape:label="Bottom" /><text
       xml:space="preserve"
       style="font-style:normal;font-variant:normal;font-weight:normal;font-stretch:normal;font-size:16.9333px;font-family:Georgia;-inkscape-font-specification:Georgia;opacity:0.51;fill:#7c7046;fill-opacity:1;stroke-width:0"
       x="81.058006"
       y="52.161289"
       id="text9142"><tspan
         sodipodi:role="line"
         id="tspan9140"
         x="81.058006"
         y="52.161289"
         style="font-style:normal;font-variant:normal;font-weight:normal;font-stretch:normal;font-size:16.9333px;font-family:Georgia;-inkscape-font-specification:Georgia;fill:#7c7046;fill-opacity:1;stroke-width:0" /></text></g></svg>
